<svg height="594" viewBox="0 0 560 594" width="560" xmlns="http://www.w3.org/2000/svg"><g fill="none" fill-rule="evenodd"><g transform="translate(2 80)"><path d="m2.618 182.231139.009 313.477c0 7.631 6.206 13.817 13.861 13.817l282.44-.009c7.655 0 13.86-6.186 13.86-13.817l-.001-48.856-.234-26.927-.009-297.692c0-7.631-6.206-13.817-13.861-13.817l-222.253.007-73.811 73.752z" fill="#fff"/><path d="m4.618 182.996139.009 312.712c0 6.516 5.321 11.817 11.861 11.817l282.44-.008c6.54-.001 11.86-5.303 11.86-11.819l-.002-48.855-.233-26.909-.009-297.71c0-6.515-5.321-11.817-11.861-11.817l-221.425.007zm11.87 328.529c-8.745 0-15.861-7.095-15.861-15.817l-.009-313.477c0-.015 0-.03.001-.045l.001-.065c.012-.515.221-1.006.586-1.37l73.81-73.752c.375-.375.884-.585 1.414-.585l222.253-.007c8.746 0 15.861 7.096 15.861 15.817l.009 297.692.233 26.909.002 48.873c0 8.721-7.114 15.818-15.859 15.819z" fill="#5d7183" stroke="#587185" stroke-width="4"/><path d="m74.582 113.242139-67.135 67.141 54.587-.002c6.92 0 12.55-5.63 12.55-12.551zm-71.964 71.141c-.809 0-1.538-.487-1.848-1.234-.309-.748-.138-1.608.434-2.18l73.964-73.969c.572-.573 1.432-.745 2.18-.434.747.31 1.234 1.039 1.234 1.848l.002 59.416c0 9.126-7.424 16.551-16.55 16.551z" fill="#5d7183" stroke="#587185" stroke-width="4"/><path d="m219.69 214.118139h-130.156c-1.657 0-3-1.343-3-3 0-1.656 1.343-3 3-3h130.156c1.657 0 3 1.344 3 3 0 1.657-1.343 3-3 3" fill="#bbdff5"/><g fill="#5d7183"><path d="m277.103 283.619139h-244.982c-1.105 0-2-.895-2-2 0-1.104.895-2 2-2h244.982c1.104 0 2 .896 2 2 0 1.105-.896 2-2 2"/><path d="m277.103 255.419139h-244.982c-1.105 0-2-.896-2-2 0-1.105.895-2 2-2h244.982c1.104 0 2 .895 2 2 0 1.104-.896 2-2 2"/><path d="m155.533 311.820139h-123.412c-1.105 0-2-.896-2-2 0-1.105.895-2 2-2h123.412c1.104 0 2 .895 2 2 0 1.104-.896 2-2 2"/></g><path d="m219.69 353.221139h-130.156c-1.657 0-3-1.343-3-3s1.343-3 3-3h130.156c1.657 0 3 1.343 3 3s-1.343 3-3 3" fill="#bbdff5"/><g fill="#5d7183"><path d="m277.103 422.722139h-244.982c-1.105 0-2-.896-2-2 0-1.105.895-2 2-2h244.982c1.104 0 2 .895 2 2 0 1.104-.896 2-2 2"/><path d="m277.103 394.522139h-244.982c-1.105 0-2-.896-2-2 0-1.105.895-2 2-2h244.982c1.104 0 2 .895 2 2 0 1.104-.896 2-2 2"/><path d="m215.533 450.922139h-183.412c-1.105 0-2-.895-2-2 0-1.104.895-2 2-2h183.412c1.104 0 2 .896 2 2 0 1.105-.896 2-2 2"/></g><path d="m243.351 138.699139.009 313.477c.001 7.631 6.206 13.817 13.861 13.816l282.44-.008c7.655 0 13.86-6.186 13.86-13.817l-.001-48.856-.234-26.927-.009-297.6919999c0-7.631-6.206-13.817-13.861-13.817l-222.253.007-73.81 73.7509999z" fill="#fff"/><path d="m245.351 139.464139.009 312.712c.001 6.516 5.321 11.816 11.862 11.816l282.439-.007c3.169 0 6.148-1.231 8.389-3.464 2.238-2.233 3.471-5.2 3.471-8.355l-.001-48.855-.234-26.909-.008-297.7099999c-.001-6.516-5.322-11.817-11.862-11.817l-221.424.006zm11.871 328.528c-8.746 0-15.861-7.094-15.862-15.816l-.009-313.477c0-.015 0-.03 0-.045l.002-.065c.012-.516.221-1.006.586-1.37l73.811-73.7519999c.375-.375.883-.586 1.413-.586l222.253-.006c8.745 0 15.861 7.095 15.862 15.817l.008 297.6919999.234 26.909.001 48.873c.001 4.227-1.65 8.199-4.648 11.188-2.995 2.985-6.977 4.63-11.212 4.631z" fill="#5d7183" stroke="#587185" stroke-width="4"/><path d="m315.316 69.7101391-67.136 67.1399999 54.587-.001c3.352 0 6.504-1.306 8.874-3.677 2.371-2.37 3.676-5.522 3.676-8.875zm-71.965 71.1399999c-.809 0-1.538-.487-1.848-1.234-.309-.748-.138-1.608.434-2.18l73.965-73.9689999c.571-.573 1.432-.743 2.179-.433.747.309 1.235 1.038 1.235 1.847l.001 59.4159999c.001 9.126-7.424 16.551-16.55 16.552z" fill="#6a79a8"/><path d="m460.423 170.586139h-130.157c-1.656 0-3-1.344-3-3 0-1.657 1.344-3 3-3h130.157c1.657 0 3 1.343 3 3 0 1.656-1.343 3-3 3" fill="#bbdff5"/><path d="m517.836 240.087139h-244.982c-1.104 0-2-.895-2-2 0-1.104.896-2 2-2h244.982c1.105 0 2 .896 2 2 0 1.105-.895 2-2 2" fill="#5d7183"/><path d="m517.836 211.886139h-244.982c-1.104 0-2-.895-2-2 0-1.104.896-2 2-2h244.982c1.105 0 2 .896 2 2 0 1.105-.895 2-2 2" fill="#5d7183"/><path d="m396.266 268.287139h-123.412c-1.104 0-2-.895-2-2 0-1.104.896-2 2-2h123.412c1.104 0 2 .896 2 2 0 1.105-.896 2-2 2" fill="#6a79a8"/><path d="m460.423 309.689139h-130.157c-1.656 0-3-1.344-3-3 0-1.657 1.344-3 3-3h130.157c1.657 0 3 1.343 3 3 0 1.656-1.343 3-3 3" fill="#bbdff5"/><path d="m517.836 379.190139h-244.982c-1.104 0-2-.896-2-2 0-1.105.896-2 2-2h244.982c1.105 0 2 .895 2 2 0 1.104-.895 2-2 2" fill="#5d7183"/><path d="m517.836 350.989139h-244.982c-1.104 0-2-.895-2-2 0-1.104.896-2 2-2h244.982c1.105 0 2 .896 2 2 0 1.105-.895 2-2 2" fill="#5d7183"/><path d="m396.266 407.390139h-123.412c-1.104 0-2-.896-2-2 0-1.105.896-2 2-2h123.412c1.104 0 2 .895 2 2 0 1.104-.896 2-2 2" fill="#5d7183"/><path d="m122.985 76.1201391.009 313.4769999c0 7.631 6.206 13.817 13.861 13.817l282.439-.009c7.655 0 13.861-6.186 13.861-13.817l-.002-48.856-.233-26.927-.009-297.6919999c0-7.63099999-6.206-13.81699999-13.861-13.81699999l-222.253.007-73.811 73.75199999z" fill="#fff" stroke="#979797"/><path d="m124.985 76.8851391.009 312.7119999c0 6.516 5.321 11.817 11.861 11.817l282.439-.009c6.54 0 11.861-5.3 11.861-11.817l-.002-48.856-.234-26.909-.008-297.7099999c0-3.155-1.234-6.12199999-3.472-8.35399999-2.24-2.233-5.22-3.462-8.389-3.462l-221.425.006zm11.87 328.5289999c-8.746 0-15.861-7.096-15.861-15.817l-.009-313.4769999c0-.014 0-.03 0-.045l.002-.065c.011-.515.221-1.006.586-1.37l73.81-73.75199999c.375-.375.883-.585 1.414-.585l222.253-.006c4.236-.001 8.217 1.644 11.213 4.629 2.997 2.988 4.648 6.96099999 4.648 11.18699999l.008 297.6919999.234 26.909.002 48.874c0 8.722-7.116 15.817-15.861 15.817z" fill="#5d7183" stroke="#587185" stroke-width="4"/><path d="m194.949 7.13113911-67.136 67.14099999 54.587-.002c3.353 0 6.505-1.306 8.875-3.676 2.37-2.371 3.676-5.523 3.676-8.875zm-71.964 71.14099999c-.809 0-1.538-.488-1.848-1.235s-.139-1.608.434-2.179l73.964-73.96899999c.571-.573 1.432-.745 2.179-.434.748.31 1.235 1.039 1.235 1.848l.002 59.41599999c0 4.421-1.722 8.577-4.848 11.703s-7.282 4.848-11.703 4.848z" fill="#5d7183" stroke="#587185" stroke-width="4"/><path d="m340.057 108.007139h-130.157c-1.656 0-3-1.343-3-3s1.344-3 3-3h130.157c1.657 0 3 1.343 3 3s-1.343 3-3 3" fill="#bbdff5"/><path d="m397.469 177.508139h-244.981c-1.105 0-2-.895-2-2 0-1.104.895-2 2-2h244.981c1.105 0 2 .896 2 2 0 1.105-.895 2-2 2" fill="#5d7183"/><path d="m397.469 149.308139h-244.981c-1.105 0-2-.896-2-2 0-1.105.895-2 2-2h244.981c1.105 0 2 .895 2 2 0 1.104-.895 2-2 2" fill="#5d7183"/><path d="m275.899 205.709139h-123.411c-1.105 0-2-.896-2-2 0-1.105.895-2 2-2h123.411c1.105 0 2 .895 2 2 0 1.104-.895 2-2 2" fill="#5d7183"/><path d="m340.057 247.110139h-130.157c-1.656 0-3-1.344-3-3 0-1.657 1.344-3 3-3h130.157c1.657 0 3 1.343 3 3 0 1.656-1.343 3-3 3" fill="#bbdff5"/><path d="m397.469 316.611139h-244.981c-1.105 0-2-.896-2-2 0-1.105.895-2 2-2h244.981c1.105 0 2 .895 2 2 0 1.104-.895 2-2 2" fill="#5d7183"/><path d="m397.469 288.410139h-244.981c-1.105 0-2-.895-2-2 0-1.104.895-2 2-2h244.981c1.105 0 2 .896 2 2 0 1.105-.895 2-2 2" fill="#5d7183"/><path d="m275.899 344.812139h-123.411c-1.105 0-2-.896-2-2 0-1.105.895-2 2-2h123.411c1.105 0 2 .895 2 2 0 1.104-.895 2-2 2" fill="#5d7183"/></g><g transform="matrix(-1 0 0 -1 377 156)"><path d="m152.214 76.107c0-42.033-34.074-76.107-76.107-76.107s-76.107 34.074-76.107 76.107 34.074 76.107 76.107 76.107 76.107-34.074 76.107-76.107" fill="#fff" stroke="#5d7183" stroke-width="7"/><path d="m95.062 22.082v54.229h31.717c3.552 0 5.33 4.294 2.819 6.805l-50.609 50.609c-1.591 1.592-4.172 1.592-5.764 0l-50.609-50.609c-2.511-2.511-.732-6.805 2.819-6.805h30.724v-54.229c0-2.643 2.143-4.786 4.786-4.786h29.331c2.643 0 4.786 2.143 4.786 4.786" fill="#abefab"/></g></g></svg>